# xmcd
#
# Track frame offsets: 
#        150
#        16590
#        31129
#        46324
#        58857
#        75722
#        89467
#        103384
#        118235
#        127250
#        144124
#        160840
#        171753
#        187606
#        202101
#        216672
#        230890
#        247265
#        260659
#        275447
#        289573
#        303222
#        314948
#        330875
#        340862
#
# Disc length: 4696 seconds
#
# Revision: 1
# Processed by: cddbd v1.5.2PL0 Copyright (c) Steve Scherf et al.
# Submitted via: ExactAudioCopyFreeDBPlugin 1.0
#
DISCID=7a125619
DTITLE=C.S. Lewis - Mere Christianity
DYEAR=2006
DGENRE=Audio Book
TTITLE0=Book 3 Chapter 5c
TTITLE1=Book 3 Chapter 5d
TTITLE2=Book 3 Chapter 5e
TTITLE3=Book 3 Chapter 6a
TTITLE4=Book 3 Chapter 6b
TTITLE5=Book 3 Chapter 6c
TTITLE6=Book 3 Chapter 6d
TTITLE7=Book 3 Chapter 6e
TTITLE8=Book 3 Chapter 6f
TTITLE9=Book 3 Chapter 7a
TTITLE10=Book 3 Chapter 7b
TTITLE11=Book 3 Chapter 7c
TTITLE12=Book 3 Chapter 8a
TTITLE13=Book 3 Chapter 8b
TTITLE14=Book 3 Chapter 8c
TTITLE15=Book 3 Chapter 8d
TTITLE16=Book 3 Chapter 9a
TTITLE17=Book 3 Chapter 9b
TTITLE18=Book 3 Chapter 10a
TTITLE19=Book 3 Chapter 10b
TTITLE20=Book 3 Chapter 11a
TTITLE21=Book 3 Chapter 11b
TTITLE22=Book 3 Chapter 11c
TTITLE23=Book 3 Chapter 12a
TTITLE24=Book 3 Chapter 12b
EXTD=
EXTT0=
EXTT1=
EXTT2=
EXTT3=
EXTT4=
EXTT5=
EXTT6=
EXTT7=
EXTT8=
EXTT9=
EXTT10=
EXTT11=
EXTT12=
EXTT13=
EXTT14=
EXTT15=
EXTT16=
EXTT17=
EXTT18=
EXTT19=
EXTT20=
EXTT21=
EXTT22=
EXTT23=
EXTT24=
PLAYORDER=
